# AST/ASF file generated using VICON BodyLanguage
# -----------------------------------------------
:version 1.10
:name VICON
:units
  mass 1.0
  length 0.45
  angle deg
:documentation
   .ast/.asf automatically generated from VICON data using
   VICON BodyBuilder and BodyLanguage model FoxedUp or BRILLIANT.MOD
:root
   order TX TY TZ RX RY RZ
   axis XYZ
   position 0 0 0  
   orientation 0 0 0 
:bonedata
  begin
     id 1 
     name lhipjoint
     direction 0.631061 -0.684803 0.364427 
     length 2.59943 
     axis 0 0 0  XYZ
  end
  begin
     id 2 
     name lfemur
     direction 0.34202 -0.939693 0  
     length 6.69088  
     axis 0 0 20  XYZ
    dof rx ry rz
    limits (-160.0 20.0)
           (-70.0 70.0)
           (-60.0 70.0)
  end
  begin
     id 3 
     name ltibia
     direction 0.34202 -0.939693 0   
     length 7.83506   
     axis 0 0 20   XYZ
    dof rx
    limits (-10.0 170.0)
  end
  begin
     id 4 
     name lfoot
     direction 0.176279 -0.484322 0.856947   
     length 2.95235   
     axis -90 7.62852e-016 20   XYZ
    dof rx rz
    limits (-45.0 90.0)
           (-70.0 20.0)
  end
  begin
     id 5 
     name ltoes
     direction 1.53551e-011 -4.21828e-011 1   
     length 1.41888   
     axis -90 7.62852e-016 20   XYZ
    dof rx
    limits (-90.0 20.0)
  end
  begin
     id 6 
     name rhipjoint
     direction -0.641155 -0.677457 0.360518   
     length 2.62761  
     axis 0 0 0  XYZ 
  end
  begin
     id 7 
     name rfemur
     direction -0.34202 -0.939693 0   
     length 6.52283   
     axis 0 0 -20   XYZ
    dof rx ry rz
    limits (-160.0 20.0)
           (-70.0 70.0)
           (-70.0 60.0)
  end
  begin
     id 8 
     name rtibia
     direction -0.34202 -0.939693 0   
     length 7.74138   
     axis 0 0 -20   XYZ
    dof rx
    limits (-10.0 170.0)
 end
 begin
     id 9 
     name rfoot
     direction -0.186474 -0.512334 0.838297   
     length 2.72941  
     axis -90 -7.62852e-016 -20   XYZ
    dof rx rz
    limits (-45.0 90.0)
           (-20.0 70.0)
  end
  begin
     id 10 
     name rtoes
     direction -1.53683e-011 -4.22007e-011 1   
     length 1.30521   
     axis -90 -7.62852e-016 -20   XYZ
    dof rx
    limits (-90.0 20.0)
  end
  begin
     id 11 
     name lowerback
     direction -0.0121201 0.985605 -0.168631   
     length 2.60975   
     axis 0 0 0   XYZ
    dof rx ry rz
    limits (-20.0 45.0)
           (-30.0 30.0)
           (-30.0 30.0)
  end
  begin
     id 12 
     name upperback
     direction -0.019495 0.999568 -0.0220039   
     length 2.65091   
     axis 0 0 0   XYZ
    dof rx ry rz
    limits (-20.0 45.0)
           (-30.0 30.0)
           (-30.0 30.0)
  end
  begin
     id 13 
     name thorax
     direction -0.0125765 0.998661 0.0501718   
     length 2.70267   
     axis 0 0 0   XYZ
    dof rx ry rz
    limits (-20.0 45.0)
           (-30.0 30.0)
           (-30.0 30.0)
  end
  begin
     id 14 
     name lowerneck
     direction -0.0309438 0.997491 -0.0636732   
     length 1.56498   
     axis 0 0 0   XYZ
    dof rx ry rz
    limits (-20.0 45.0)
           (-30.0 30.0)
           (-30.0 30.0)
  end
  begin
     id 15 
     name upperneck
     direction -0.00130017 0.992397 -0.123074   
     length 1.5414   
     axis 0 0 0   XYZ
    dof rx ry rz
    limits (-20.0 45.0)
           (-30.0 30.0)
           (-30.0 30.0)
  end
  begin
     id 16
     name head
     direction 0.00242507 0.999315 -0.0369171  
     length 1.60129  
     axis 0 0 0   XYZ
    dof rx ry rz
    limits (-20.0 45.0)
           (-30.0 30.0)
           (-30.0 30.0)
  end
  begin
     id 17 
     name lclavicle
     direction 0.996744 0.0363396 -0.0719802  
     length 4.63989  
     axis 0 0 0   XYZ
    dof ry rz
    limits (-20.0 10.0)
           (0.0 20.0)
  end
  begin
     id 18 
     name lhumerus
     direction 1 -4.49035e-011 -2.38432e-027   
     length 4.58161   
     axis 180 -30 -90   XYZ
    dof rx ry rz
    limits (-60.0 90.0)
           (-90.0 90.0)
           (-90.0 90.0)
  end
  begin
     id 19
     name lradius
     direction 1 0.000357117 -0.000206182   
     length 3.43782   
     axis 180 -30 -90   XYZ
    dof rx
    limits (-10.0 170.0)
  end
  begin
     id 20
     name lwrist
     direction 1 -7.34592e-005 -0.000404398   
     length 1.71891   
     axis 7.40711e-015 90 90   XYZ
    dof ry
    limits (-180.0 0.0)
 end
  begin
     id 21 
     name lhand
     direction 1 -4.48735e-011 -2.22254e-026   
     length 1.04662   
     axis 1.41817e-014 90 90   XYZ
    dof rx rz
    limits (-90.0 90.0)
           (-45.0 45.0)
  end
  begin
     id 22 
     name lfingers
     direction 1 -4.49414e-011 -4.44507e-026   
     length 0.843814   
     axis 2.83634e-014 90 90   XYZ
    dof rx
    limits (0.0 90.0)
  end
  begin
     id 23
     name lthumb
     direction 0.707107 -6.3482e-011 0.707107   
     length 1.21155   
     axis -90 45 2.85299e-015   XYZ
    dof rx rz
    limits (-45.0 45.0)
           (-45.0 45.0)
  end
  begin
     id 24 
     name rclavicle
     direction -0.997328 0.0105626 0.0722925   
     length 4.0272  
     axis 0 0 0   XYZ 
    dof ry rz
    limits (-10.0 20.0)
           (-20.0 0.0)
  end
  begin
     id 25 
     name rhumerus
     direction -1 -4.48913e-011 -1.83378e-027  
     length 4.53415   
     axis 180 30 90   XYZ
    dof rx ry rz
    limits (-90.0 60.0)
           (-90.0 90.0)
           (-90.0 90.0)
  end
  begin
     id 26 
     name rradius
     direction -0.999999 0.00120542 -0.000695951   
     length 3.33298   
     axis 180 30 90   XYZ
    dof rx
    limits (-10.0 170.0)
  end
  begin
     id 27 
     name rwrist
     direction -0.999999 0.000362235 -0.0013361   
     length 1.66649   
     axis 7.40711e-015 -90 -90   XYZ
    dof ry
    limits (-180.0 0.0)
  end
  begin
     id 28
     name rhand
     direction -1 -4.49379e-011 -2.22254e-026   
     length 1.21477   
     axis 1.41817e-014 -90 -90   XYZ
    dof rx rz
    limits (-90.0 90.0)
           (-45.0 45.0)
  end
  begin
     id 29
     name rfingers
     direction -1 -4.48656e-011 -4.44507e-026   
     length 0.979378   
     axis 2.83634e-014 -90 -90   XYZ
    dof rx
    limits (0.0 90.0)
  end
  begin
     id 30
     name rthumb
     direction -0.707107 -6.35052e-011 0.707107   
     length 1.4062   
     axis -90 -45 -2.85299e-015   XYZ
    dof rx rz
    limits (-45.0 45.0)
           (-45.0 45.0)
  end
:hierarchy
  begin
    root lhipjoint rhipjoint lowerback
    lhipjoint lfemur
    lfemur ltibia
    ltibia lfoot
    lfoot ltoes
    rhipjoint rfemur
    rfemur rtibia
    rtibia rfoot
    rfoot rtoes
    lowerback upperback
    upperback thorax
    thorax lowerneck lclavicle rclavicle
    lowerneck upperneck
    upperneck head
    lclavicle lhumerus
    lhumerus lradius
    lradius lwrist
    lwrist lhand lthumb
    lhand lfingers
    rclavicle rhumerus
    rhumerus rradius
    rradius rwrist
    rwrist rhand rthumb
    rhand rfingers
  end

#!OML:ASF X:\für Bonn\!DataBase\2005_08_12_Daniel\c3d\Daniel.ASF
:FULLY-SPECIFIED
:DEGREES
113
root 1.27518 17.6314 0.35757 -34.7449 -81.4123 31.7442
lowerback 3.86262 -1.8656 -4.49001
upperback 0.863455 -2.75922 -2.80404
thorax -1.20511 -1.38993 -0.235546
lowerneck 2.13791 0.958279 -3.23083
upperneck 8.11141 1.0744 1.17045
head 2.15646 0.411491 0.92784
rclavicle -3.59909e-015 -1.94809e-014
rhumerus -34.3842 -16.5396 -26.4208
rradius 52.9599
rwrist -11.3058
rhand -35.5584 24.1135
rfingers 7.12502
rthumb -8.68364 -5.68785
lclavicle -3.59909e-015 -1.94809e-014
lhumerus -33.9663 19.063 14.034
lradius 57.7692
lwrist 17.0157
lhand -10.8317 -4.75199
lfingers 7.12502
lthumb 15.1826 24.671
rfemur -0.877159 16.8552 12.6114
rtibia 27.1566
rfoot -29.1627 -21.457
rtoes -14.5558
lfemur -4.07698 -12.1652 -22.9022
ltibia 29.6851
lfoot -21.689 9.22027
ltoes -18.689
114
root 1.29305 17.635 0.362024 -34.3355 -81.3435 31.3197
lowerback 3.88761 -1.91394 -4.55415
upperback 0.939855 -2.82567 -2.8222
thorax -1.13644 -1.42548 -0.216517
lowerneck 2.06489 0.929918 -3.34924
upperneck 8.20917 1.02227 1.41406
head 2.20234 0.386448 1.02696
rclavicle -9.74355e-015 4.57205e-014
rhumerus -35.3743 -16.5932 -28.0338
rradius 54.369
rwrist -8.9579
rhand -36.3766 25.0797
rfingers 7.12502
rthumb -9.47322 -4.68733
lclavicle -9.74355e-015 4.57205e-014
lhumerus -35.0351 18.8751 15.5916
lradius 60.1717
lwrist 15.9062
lhand -10.8653 -5.21831
lfingers 7.12502
lthumb 15.1503 24.2071
rfemur -0.968113 16.3976 12.4813
rtibia 27.1551
rfoot -28.8352 -21.1594
rtoes -14.5648
lfemur -4.14744 -12.1953 -22.9009
ltibia 29.7008
lfoot -21.6087 9.18529
ltoes -18.7413
115
root 1.3125 17.6377 0.366951 -33.5698 -81.266 30.5197
lowerback 3.94318 -1.99051 -4.59473
upperback 1.01311 -2.92988 -2.81324
thorax -1.0866 -1.4793 -0.179886
lowerneck 1.96281 0.906411 -3.4438
upperneck 8.34746 0.980974 1.58798
head 2.26694 0.365403 1.1008
rclavicle -1.29427e-014 -1.90833e-014
rhumerus -36.2831 -16.5293 -29.7262
rradius 55.653
rwrist -6.63824
rhand -37.0708 26.208
rfingers 7.12502
rthumb -10.1429 -3.52753
lclavicle -1.29427e-014 -1.90833e-014
lhumerus -36.1139 18.7449 17.2443
lradius 62.5006
lwrist 14.7257
lhand -11.0692 -5.73368
lfingers 7.12502
lthumb 14.9538 23.7065
rfemur -1.02687 15.9954 12.4146
rtibia 27.1477
rfoot -28.5827 -20.8927
rtoes -14.5132
lfemur -4.23956 -12.1708 -22.8309
ltibia 29.731
lfoot -21.5144 9.04118
ltoes -18.751
116
root 1.33331 17.6406 0.37187 -33.1466 -81.1807 30.0585
lowerback 4.02297 -2.03641 -4.67914
upperback 1.07858 -2.99812 -2.82464
thorax -1.05809 -1.51498 -0.140201
lowerneck 1.91504 0.850077 -3.53919
upperneck 8.45819 0.889955 1.81507
head 2.31458 0.321025 1.19078
rclavicle -2.37454e-014 -2.78299e-015
rhumerus -37.2761 -16.5254 -31.4336
rradius 56.8271
rwrist -4.20893
rhand -37.7434 27.3648
rfingers 7.12502
rthumb -10.7918 -2.33798
lclavicle -2.37454e-014 -2.78299e-015
lhumerus -37.0937 18.6783 19.0451
lradius 64.7235
lwrist 13.4727
lhand -11.3903 -6.21767
lfingers 7.12502
lthumb 14.6445 23.2452
rfemur -1.10499 15.4785 12.2752
rtibia 27.1471
rfoot -28.2091 -20.5626
rtoes -14.5782
lfemur -4.3157 -12.1937 -22.8253
ltibia 29.7509
lfoot -21.4164 8.96778
ltoes -18.6976
117
root 1.35421 17.6429 0.377223 -32.5995 -81.0833 29.4803
lowerback 4.10583 -2.10784 -4.7719
upperback 1.12696 -3.10082 -2.81247
thorax -1.04581 -1.56712 -0.0696142
lowerneck 1.84407 0.810653 -3.66941
upperneck 8.631 0.823181 1.99965
head 2.38675 0.285662 1.27459
rclavicle 1.06723e-014 -1.19271e-015
rhumerus -38.1806 -16.4292 -33.167
rradius 57.8392
rwrist -1.62766
rhand -38.4572 28.5955
rfingers 7.12502
rthumb -11.4802 -1.0701
lclavicle 1.06723e-014 -1.19271e-015
lhumerus -38.0512 18.6397 20.9125
lradius 66.7699
lwrist 12.1837
lhand -11.7711 -6.83348
lfingers 7.12502
lthumb 14.2775 22.6557
rfemur -1.1652 15.0447 12.1621
rtibia 27.147
rfoot -27.9694 -20.2559
rtoes -14.5094
lfemur -4.39049 -12.2692 -22.8179
ltibia 29.7671
lfoot -21.3225 8.92561
ltoes -18.7033
118
root 1.37477 17.6457 0.381788 -32.1001 -81.0335 28.9278
lowerback 4.19806 -2.15343 -4.83844
upperback 1.18998 -3.16894 -2.81974
thorax -1.02704 -1.60262 -0.034896
lowerneck 1.79795 0.754846 -3.79656
upperneck 8.76773 0.728728 2.25949
head 2.44405 0.239045 1.38167
rclavicle 4.55465e-014 3.26007e-014
rhumerus -39.1049 -16.3943 -34.9964
rradius 58.6925
rwrist 1.04921
rhand -39.2028 29.7975
rfingers 7.12502
rthumb -12.1992 0.173233
lclavicle 4.55465e-014 3.26007e-014
lhumerus -38.8576 18.6391 22.8413
lradius 68.6266
lwrist 10.8923
lhand -12.0553 -7.4822
lfingers 7.12502
lthumb 14.0038 22.0261
rfemur -1.23298 14.5444 12.0643
rtibia 27.1527
rfoot -27.6296 -19.9126
rtoes -14.7434
lfemur -4.42831 -12.2794 -22.7823
ltibia 29.773
lfoot -21.2524 8.8586
ltoes -18.6996
119
root 1.39716 17.6484 0.388567 -31.6016 -80.9454 28.3614
lowerback 4.304 -2.21328 -4.92451
upperback 1.2756 -3.2571 -2.82529
thorax -0.990575 -1.6489 0.0133451
lowerneck 1.68782 0.68866 -3.90463
upperneck 8.95122 0.623433 2.49105
head 2.52949 0.186942 1.47763
rclavicle -4.78077e-014 -3.57812e-014
rhumerus -40.0152 -16.4544 -36.8752
rradius 59.4259
rwrist 3.89273
rhand -40.0135 31.0572
rfingers 7.12502
rthumb -12.9808 1.481
lclavicle -4.78077e-014 -3.57812e-014
lhumerus -39.5694 18.703 24.8672
lradius 70.2666
lwrist 9.6109
lhand -12.2514 -8.08506
lfingers 7.12502
lthumb 13.8147 21.4362
rfemur -1.28275 14.0916 11.9497
rtibia 27.1626
rfoot -27.3374 -19.5913
rtoes -14.6443
lfemur -4.4674 -12.2751 -22.765
ltibia 29.7688
lfoot -21.1371 8.75237
ltoes -18.7169
120
root 1.42096 17.6504 0.396152 -30.8621 -80.8798 27.5509
lowerback 4.43241 -2.29037 -4.97578
upperback 1.34024 -3.36846 -2.81092
thorax -0.987935 -1.7056 0.0655627
lowerneck 1.54032 0.637107 -4.04131
upperneck 9.2254 0.533823 2.74759
head 2.65262 0.141288 1.58892
rclavicle 1.41634e-014 1.15295e-014
rhumerus -40.8928 -16.5171 -38.7495
rradius 59.9758
rwrist 6.75255
rhand -40.827 32.5344
rfingers 7.12502
rthumb -13.7649 3.00972
lclavicle 1.41634e-014 1.15295e-014
lhumerus -40.2934 18.7783 26.9099
lradius 71.7755
lwrist 8.17638
lhand -12.3615 -8.53919
lfingers 7.12502
lthumb 13.7086 20.9893
rfemur -1.33188 13.5992 11.8825
rtibia 27.1742
rfoot -26.9767 -19.2628
rtoes -14.6107
lfemur -4.50512 -12.2278 -22.701
ltibia 29.7645
lfoot -21.0211 8.63644
ltoes -18.7442
121
root 1.44486 17.6549 0.404522 -30.5311 -80.8027 27.1998
lowerback 4.49106 -2.33906 -5.11436
upperback 1.42731 -3.44085 -2.81353
thorax -0.92025 -1.74488 0.142938
lowerneck 1.39241 0.537641 -4.13408
upperneck 9.41954 0.383412 2.98438
head 2.75227 0.0682118 1.68454
rclavicle -6.72141e-015 -1.19271e-014
rhumerus -41.7546 -16.6682 -40.6303
rradius 60.4337
rwrist 9.62583
rhand -41.6439 33.87
rfingers 7.12502
rthumb -14.5521 4.40045
lclavicle -6.72141e-015 -1.19271e-014
lhumerus -40.8537 18.9438 29.0864
lradius 73.1583
lwrist 6.65567
lhand -12.1998 -8.8854
lfingers 7.12502
lthumb 13.8645 20.6325
rfemur -1.45895 13.1011 11.708
rtibia 27.2094
rfoot -26.6432 -18.8799
rtoes -14.6687
lfemur -4.57042 -12.3072 -22.7274
ltibia 29.7445
lfoot -20.9076 8.63636
ltoes -18.7435
122
root 1.47177 17.658 0.412898 -30.01 -80.7361 26.6346
lowerback 4.62312 -2.40854 -5.23524
upperback 1.47645 -3.5474 -2.81612
thorax -0.931952 -1.79904 0.216856
lowerneck 1.35675 0.475527 -4.11553
upperneck 9.61665 0.278239 3.16472
head 2.83056 0.0183321 1.74165
rclavicle -1.60394e-014 2.3059e-014
rhumerus -42.6381 -16.8201 -42.5132
rradius 60.7441
rwrist 12.5271
rhand -42.4437 35.3559
rfingers 7.12502
rthumb -15.3226 5.94352
lclavicle -1.60394e-014 2.3059e-014
lhumerus -41.398 19.089 31.1756
lradius 74.3615
lwrist 4.95543
lhand -11.8019 -9.16511
lfingers 7.12502
lthumb 14.2479 20.3262
rfemur -1.58501 12.6084 11.5798
rtibia 27.2539
rfoot -26.3296 -18.5093
rtoes -14.6448
lfemur -4.63399 -12.3179 -22.6986
ltibia 29.7287
lfoot -20.7813 8.56092
ltoes -18.7507
123
root 1.49937 17.6611 0.42126 -29.6352 -80.7069 26.2035
lowerback 4.76201 -2.46326 -5.38962
upperback 1.54441 -3.63493 -2.78751
thorax -0.924224 -1.84436 0.340279
lowerneck 1.21297 0.388454 -4.23804
upperneck 9.88048 0.135817 3.44221
head 2.95522 -0.0515382 1.85768
rclavicle 2.09966e-014 2.06736e-014
rhumerus -43.4354 -16.9685 -44.3556
rradius 60.9831
rwrist 15.1073
rhand -43.0283 36.9893
rfingers 7.12502
rthumb -15.8856 7.62093
lclavicle 2.09966e-014 2.06736e-014
lhumerus -41.8664 19.4449 33.3709
lradius 75.386
lwrist 2.97559
lhand -11.2095 -9.41878
lfingers 7.12502
lthumb 14.8187 20.0314
rfemur -1.72688 12.0843 11.4451
rtibia 27.3154
rfoot -25.9315 -18.1284
rtoes -14.6875
lfemur -4.67947 -12.2735 -22.6708
ltibia 29.7011
lfoot -20.6486 8.47641
ltoes -18.7668
124
root 1.5282 17.6636 0.430864 -29.2596 -80.6803 25.793
lowerback 4.86736 -2.53122 -5.55132
upperback 1.61741 -3.73844 -2.77348
thorax -0.89169 -1.89854 0.451724
lowerneck 1.12252 0.305116 -4.21921
upperneck 10.1045 0.00147897 3.62221
head 3.05564 -0.115067 1.9153
rclavicle 3.08116e-015 3.89618e-014
rhumerus -44.1466 -17.1867 -46.2254
rradius 61.1117
rwrist 17.4997
rhand -43.5081 38.4806
rfingers 7.12502
rthumb -16.3476 9.14963
lclavicle 3.08116e-015 3.89618e-014
lhumerus -42.3061 19.9217 35.5132
lradius 76.354
lwrist 0.916903
lhand -10.4999 -9.72988
lfingers 7.12502
lthumb 15.5022 19.6686
rfemur -1.91842 11.4582 11.2645
rtibia 27.3991
rfoot -25.492 -17.6086
rtoes -14.7111
lfemur -4.74042 -12.3036 -22.6603
ltibia 29.6682
lfoot -20.5138 8.46843
ltoes -18.7758
125
root 1.55939 17.6682 0.442724 -28.7189 -80.6725 25.2399
lowerback 4.98639 -2.58796 -5.67083
upperback 1.64963 -3.82719 -2.74092
thorax -0.910435 -1.94316 0.560386
lowerneck 1.08992 0.222436 -4.25415
upperneck 10.3446 -0.13953 3.83839
head 3.15266 -0.183756 1.99446
rclavicle 1.39274e-014 -7.95139e-016
rhumerus -44.9109 -17.4274 -47.9448
rradius 61.155
rwrist 19.7041
rhand -43.7187 39.9179
rfingers 7.12502
rthumb -16.5503 10.6037
lclavicle 1.39274e-014 -7.95139e-016
lhumerus -42.7613 20.3831 37.6671
lradius 77.2644
lwrist -1.31074
lhand -9.62289 -10.0552
lfingers 7.12502
lthumb 16.3468 19.2759
rfemur -2.14552 10.9359 11.1296
rtibia 27.494
rfoot -25.0808 -17.1768
rtoes -14.6349
lfemur -4.83545 -12.3557 -22.6106
ltibia 29.6361
lfoot -20.4004 8.44807
ltoes -18.6607
126
root 1.5909 17.6716 0.453786 -28.5 -80.6703 25.0037
lowerback 5.091 -2.64064 -5.82093
upperback 1.72179 -3.91127 -2.7504
thorax -0.880562 -1.98797 0.640535
lowerneck 0.942421 0.111354 -4.1552
upperneck 10.6277 -0.313034 3.98877
head 3.28667 -0.264053 2.02812
rclavicle -3.27995e-015 -1.27222e-014
rhumerus -45.5399 -17.8053 -49.7156
rradius 61.0589
rwrist 21.5824
rhand -43.7543 41.2811
rfingers 7.12502
rthumb -16.5847 11.9697
lclavicle -3.27995e-015 -1.27222e-014
lhumerus -43.1244 21.0744 39.7814
lradius 78.1019
lwrist -3.47122
lhand -8.67364 -10.5044
lfingers 7.12502
lthumb 17.2606 18.749
rfemur -2.39536 10.3662 10.9411
rtibia 27.613
rfoot -24.648 -16.7204
rtoes -14.7786
lfemur -4.91476 -12.3775 -22.6148
ltibia 29.5958
lfoot -20.2912 8.45388
ltoes -18.7435
127
root 1.6255 17.6741 0.466152 -28.2706 -80.6928 24.7322
lowerback 5.2348 -2.69726 -5.99017
upperback 1.79225 -4.00311 -2.70141
thorax -0.867768 -2.03598 0.793801
lowerneck 0.798323 0.020831 -4.25699
upperneck 10.9401 -0.464012 4.20787
head 3.43306 -0.338864 2.1224
rclavicle 4.22169e-014 -8.74653e-015
rhumerus -46.0947 -18.1465 -51.3758
rradius 60.8725
rwrist 23.1854
rhand -43.7021 42.3896
rfingers 7.12502
rthumb -16.5345 13.074
lclavicle 4.22169e-014 -8.74653e-015
lhumerus -43.483 21.8237 41.915
lradius 78.7731
lwrist -5.6539
lhand -7.84589 -11.0796
lfingers 7.12502
lthumb 18.0571 18.1022
rfemur -2.61341 9.87993 10.7857
rtibia 27.7312
rfoot -24.2244 -16.2871
rtoes -14.741
lfemur -4.9818 -12.4441 -22.6261
ltibia 29.5698
lfoot -20.1755 8.53863
ltoes -18.6761
